<svg viewBox="0 0 29 32" version="1.1" xmlns="http://www.w3.org/2000/svg">
	<title>Aigner Emblem Logo</title>
	<path d="M23.321 17.152c0.092-0.775 0.148-1.683 0.157-2.602 0-4.944-2.492-7.662-5.733-8.603-0.471-0.135-1.198-0.314-1.224 0.179 0 0.279-0.026 0.701-0.026 1.141h-3.581c0-0.436 0-0.871-0.026-1.141-0.026-0.492-0.754-0.314-1.224-0.179-3.241 0.941-5.733 3.66-5.733 8.591 0.008 0.931 0.065 1.839 0.168 2.732zM6.4 20.106c0.187 2.178 1.542 6.818 3.725 11.51 0.019 0.035 0.030 0.077 0.030 0.122 0 0.141-0.112 0.256-0.252 0.261h-6.27c-0.388 0-0.27-0.349-0.192-0.549 0.165-0.48 0.26-1.033 0.26-1.608 0-0.063-0.001-0.125-0.003-0.188 0-3.341-3.699-9.14-3.699-16.459 0-4.592 2.723-13.196 14.704-13.196s14.7 8.604 14.7 13.196c0 7.306-3.699 13.118-3.699 16.468-0.002 0.053-0.003 0.116-0.003 0.179 0 0.575 0.095 1.128 0.271 1.644 0.068 0.165 0.19 0.513-0.202 0.513h-6.269c-0.14-0.005-0.252-0.12-0.252-0.261 0-0.045 0.011-0.087 0.031-0.124 2.178-4.691 3.537-9.344 3.724-11.509z"></path>
</svg>