<svg viewBox="0 0 57 32" version="1.1" xmlns="http://www.w3.org/2000/svg">
	<title>Aigner Logo</title>
	<path d="M49.474 28.636h3.22l2.635 3.108h1.462l-2.789-3.263c1.399-0.268 2.089-1.091 2.089-2.255 0-0.836-0.442-2.221-2.891-2.221h-4.849v7.741h1.117zM49.474 27.72v-2.789h3.822c0.985 0 1.637 0.463 1.637 1.39s-0.665 1.399-1.915 1.399zM7.872 29.871l1.064 1.873h1.226l-4.433-7.739h-1.291l-4.438 7.739h1.226l1.069-1.873zM7.34 28.946h-4.517l2.26-3.999zM24.716 27.51h-4.468v0.927h3.415v1.787c-0.565 0.343-1.948 0.854-3.351 0.854-1.982 0-3.747-1.232-3.747-3.222 0-1.915 1.436-3.171 3.643-3.171 1.436 0 2.449 0.463 3.118 1.436l1.034-0.439c-0.905-1.3-2.223-1.915-4.080-1.915-2.882 0-4.878 1.698-4.878 4.158 0 2.366 2.095 4.087 4.91 4.087 1.615-0.028 3.127-0.443 4.455-1.155zM45.796 24.006h-6.898v7.741h7.163v-0.927h-6.041v-2.625h5.298v-0.927h-5.298v-2.336h5.776zM35.847 24.006h-1.061v6.33l-6.064-6.33h-1.163v7.741h1.050v-6.351l6.104 6.351h1.133zM12.884 24.006h-1.117v7.741h1.117z"></path>
	<path d="M33.173 8.834c0.047-0.395 0.076-0.858 0.081-1.327 0-2.548-1.276-3.947-2.954-4.434-0.243-0.070-0.616-0.16-0.638 0.093-0.008 0.145-0.014 0.361-0.014 0.589h-1.837c0-0.227 0-0.444-0.014-0.589-0.014-0.254-0.388-0.16-0.638-0.093-1.671 0.479-2.954 1.886-2.954 4.426 0.005 0.477 0.034 0.94 0.087 1.397zM24.457 10.356c0.097 1.117 0.798 3.511 1.915 5.928 0.010 0.018 0.015 0.040 0.015 0.062 0 0.073-0.058 0.132-0.13 0.134h-3.227c-0.201 0-0.139-0.179-0.099-0.282 0.084-0.246 0.133-0.529 0.133-0.824 0-0.034-0.001-0.068-0.002-0.101 0-1.722-1.904-4.714-1.904-8.478 0.002-2.362 1.404-6.794 7.575-6.794s7.573 4.433 7.573 6.796c0 3.764-1.904 6.756-1.904 8.483-0.001 0.029-0.002 0.063-0.002 0.097 0 0.295 0.049 0.578 0.138 0.843 0.036 0.085 0.097 0.264-0.104 0.264h-3.23c-0.072-0.002-0.13-0.061-0.13-0.134 0-0.023 0.006-0.044 0.016-0.063 1.125-2.415 1.822-4.812 1.914-5.927z"></path>
</svg>