<svg viewBox="7 9 17 17" version="1.1" xmlns="http://www.w3.org/2000/svg">
  <title>icon-search</title>
  <path d="M19.2 22.56c-0.204-0.002-0.389-0.087-0.52-0.224l-1.992-1.984c-0.647 0.45-1.448 0.719-2.313 0.719-2.253 0-4.080-1.827-4.080-4.080s1.827-4.080 4.080-4.080c2.253 0 4.080 1.827 4.080 4.080 0 0.865-0.269 1.666-0.728 2.326l2.001 1.979c0.131 0.134 0.212 0.318 0.212 0.52 0 0.409-0.331 0.742-0.74 0.744zM14.4 14.4c-1.436 0-2.6 1.164-2.6 2.6s1.164 2.6 2.6 2.6c1.436 0 2.6-1.164 2.6-2.6s-1.164-2.6-2.6-2.6z"></path>
</svg>