<svg viewBox="3 3 26 26" version="1.1" xmlns="http://www.w3.org/2000/svg">
  <title>icon-cart</title>
  <path d="M23.904 23.376h-15.816c0.416-2.672 0.8-5.4 1.296-8.096 0.256-1.328 0.072-3.2 2.336-2.888 0.232 0 0.6-0.664 0.84-1.064 2.192-3.648 4.888-3.616 7.112 0.080 0.24 0.392 0.632 1.024 0.896 0.992 1.96-0.232 1.968 1.264 2.184 2.576 0.4 2.448 0.8 4.904 1.136 7.36 0.018 0.188 0.028 0.406 0.028 0.626 0 0.146-0.005 0.29-0.013 0.434zM19.048 12.36c-0.936-1.384-1.544-2.792-3.2-2.576-1.32 0.176-2.080 1.168-2.4 2.576z"></path>
</svg>